<?xml version="1.0" encoding="iso-8859-1"?>
<!-- Uploaded to: SVG Repo, www.svgrepo.com, Generator: SVG Repo Mixer Tools -->
<svg version="1.1" id="Layer_1" xmlns="http://www.w3.org/2000/svg" xmlns:xlink="http://www.w3.org/1999/xlink" 
	 viewBox="0 0 511.999 511.999" xml:space="preserve">
<rect x="59.323" y="8.017" style="fill:#999999;" width="85.511" height="145.369"/>
<rect x="59.323" y="8.017" style="fill:#808080;" width="29.929" height="145.369"/>
<rect x="42.221" y="8.017" style="fill:#E5E5E5;" width="119.716" height="34.205"/>
<polygon style="fill:#6DDAE1;" points="55.048,503.982 55.048,196.142 8.017,196.142 255.999,8.017 503.982,196.142 
	456.951,196.142 456.951,503.982 "/>
<polygon style="fill:#4FC4D3;" points="8.017,196.142 55.048,196.142 55.048,503.982 89.787,503.982 89.787,134.11 "/>
<path style="fill:#999999;" d="M412.592,474.054c-4.103,0-8.207-1.565-11.337-4.697l-59.858-59.858
	c-6.262-6.262-6.262-16.413,0-22.674c6.26-6.262,16.413-6.262,22.674,0l59.858,59.858c6.262,6.262,6.262,16.413,0,22.674
	C420.799,472.489,416.695,474.054,412.592,474.054z"/>
<circle style="fill:#FF8C78;" cx="203.089" cy="257.069" r="119.716"/>
<circle style="fill:#DF7A6E;" cx="203.089" cy="257.069" r="104.217"/>
<circle style="fill:#CCCCCC;" cx="203.089" cy="257.069" r="85.511"/>
<path style="fill:#FAFAFA;" d="M203.089,222.864c-23.877,0-50.251,13.983-59.858,34.205c9.607,20.221,35.981,34.205,59.858,34.205
	s50.251-13.983,59.858-34.205C253.34,236.847,226.966,222.864,203.089,222.864z"/>
<circle style="fill:#6DDAE1;" cx="203.089" cy="257.069" r="25.653"/>
<path style="fill:#4FC4D3;" d="M215.114,270.697c-14.168,0-25.653-11.485-25.653-25.653c0-3.978,0.906-7.745,2.523-11.106
	c-8.607,4.14-14.548,12.941-14.548,23.131c0,14.168,11.485,25.653,25.653,25.653c10.19,0,18.991-5.941,23.131-14.548
	C222.859,269.792,219.093,270.697,215.114,270.697z"/>
<circle style="fill:#C8F4F7;" cx="204.693" cy="251.724" r="8.551"/>
<path d="M456.951,269.361c-4.427,0-8.017,3.589-8.017,8.017v218.588H63.065v-64.668c0-4.427-3.589-8.017-8.017-8.017
	s-8.017,3.589-8.017,8.017v72.685c0,4.427,3.589,8.017,8.017,8.017h401.903c4.427,0,8.017-3.589,8.017-8.017V277.378
	C464.968,272.95,461.378,269.361,456.951,269.361z"/>
<path d="M508.827,189.755L260.845,1.63c-2.865-2.173-6.826-2.173-9.69,0l-98.304,74.575V50.238h9.086
	c4.427,0,8.017-3.589,8.017-8.017V8.017c0-4.427-3.589-8.017-8.017-8.017H42.221c-4.427,0-8.017,3.589-8.017,8.017v34.205
	c0,4.427,3.589,8.017,8.017,8.017h9.086v103L3.172,189.755c-2.743,2.08-3.851,5.68-2.753,8.942c1.098,3.263,4.156,5.461,7.598,5.461
	h39.015v184.384c0,4.427,3.589,8.017,8.017,8.017s8.017-3.589,8.017-8.017v-192.4c0-4.427-3.589-8.017-8.017-8.017H31.849
	L255.999,18.079l224.152,170.046h-23.2c-4.427,0-8.017,3.589-8.017,8.017v38.48c0,4.427,3.589,8.017,8.017,8.017
	c4.427,0,8.017-3.589,8.017-8.017v-30.463h39.015c3.443,0,6.501-2.198,7.598-5.461C512.679,195.435,511.57,191.835,508.827,189.755z
	 M50.238,16.034H153.92v18.171H50.238V16.034z M67.34,50.238h69.478v38.129L67.34,141.075V50.238z"/>
<path d="M268.676,147.44c-19.756-11.843-42.436-18.104-65.587-18.104c-70.432,0-127.733,57.3-127.733,127.732
	s57.301,127.733,127.733,127.733c34.509,0,65.86-13.762,88.869-36.078l39.094,39.094c-4.252,8.936-2.711,19.964,4.676,27.351
	l59.858,59.858c9.271,9.272,24.742,9.272,34.012,0c9.377-9.376,9.377-24.635,0-34.011l-59.858-59.858
	c-7.137-7.138-18.245-9.044-27.359-4.685l-39.621-39.62c17.547-21.876,28.061-49.623,28.061-79.783
	c0-28.833-9.376-56.047-27.116-78.697c-2.73-3.486-7.77-4.098-11.254-1.368c-3.486,2.73-4.098,7.769-1.368,11.254
	c15.509,19.801,23.706,43.596,23.706,68.811c0,61.592-50.107,111.699-111.699,111.699S91.39,318.66,91.39,257.069
	s50.109-111.699,111.699-111.699c20.248,0,40.077,5.472,57.344,15.822c3.798,2.277,8.721,1.042,10.998-2.755
	C273.708,154.64,272.474,149.716,268.676,147.44z M358.403,392.494l59.858,59.858c2.916,2.916,3.107,7.743,0.424,10.878
	c-2.997,3.503-8.502,3.719-11.762,0.459l-59.858-59.858c-2.916-2.916-3.107-7.743-0.424-10.878
	C349.639,389.45,355.142,389.234,358.403,392.494z"/>
<path d="M203.089,163.541c-51.572,0-93.528,41.956-93.528,93.528s41.957,93.528,93.528,93.528s93.528-41.956,93.528-93.528
	S254.661,163.541,203.089,163.541z M203.089,334.563c-42.731,0-77.495-34.764-77.495-77.495s34.765-77.495,77.495-77.495
	s77.495,34.764,77.495,77.495S245.82,334.563,203.089,334.563z"/>
<path d="M135.991,253.629c-1.034,2.177-1.034,4.704,0,6.882c10.505,22.108,39.35,38.779,67.099,38.779s56.595-16.673,67.099-38.78
	c1.034-2.177,1.034-4.704,0-6.882c-10.504-22.108-39.35-38.78-67.099-38.78S146.496,231.52,135.991,253.629z M203.089,274.705
	c-9.725,0-17.637-7.912-17.637-17.637c0-9.725,7.912-17.637,17.637-17.637s17.637,7.912,17.637,17.637
	C220.726,266.793,212.814,274.705,203.089,274.705z M152.353,257.069c4.999-8.073,13.549-15.065,23.521-19.791
	c-4.054,5.559-6.454,12.398-6.454,19.791c0,7.392,2.401,14.231,6.454,19.791C165.901,272.135,157.351,265.142,152.353,257.069z
	 M253.826,257.069c-4.999,8.073-13.549,15.065-23.521,19.791c4.054-5.559,6.454-12.398,6.454-19.791s-2.401-14.231-6.454-19.791
	C240.278,242.004,248.827,248.995,253.826,257.069z"/>
</svg>